<?xml version="1.0" encoding="UTF-8"?>
<svg xmlns="http://www.w3.org/2000/svg" width="256" height="256" viewBox="0 0 64 64"
  fill="none" role="img" aria-labelledby="title">
  <title id="title">Terraforming Gloves</title>
  <g stroke-linecap="round" stroke-linejoin="round">
    <path d="M10 18V10H18 M46 10H54V18 M54 46V54H46 M18 54H10V46"
    stroke="#5A6378" stroke-width="1.25" opacity=".36"/>
    <g stroke="#E9EEF9" stroke-width="2.35"><path d="M21 50c-4-5-6-10-6-17V20c0-5 7-5 7 0v9-14c0-5 7-5 7 0v13-16c0-5 7-5 7 0v16-13c0-5 7-5 7 0v17l4-5c3-4 9 0 6 5l-9 14c-2 4-6 6-11 6H21Z"/></g>
    <g stroke="#58D68A" stroke-width="2.35"><path d="M20 38h25M22 44h18"/></g>
    <g fill="#58D68A"></g>
  </g>
</svg>
