<svg xmlns="http://www.w3.org/2000/svg" width="256" height="256" viewBox="0 0 256 256" style="color:#E9EEF9">

    <rect x="10" y="10" width="236" height="236" rx="26" fill="none" stroke="currentColor" stroke-width="2.35" opacity=".36"/>
    <circle cx="128" cy="128" r="42" fill="none" stroke="currentColor" stroke-width="2.35"/>
    <circle cx="128" cy="128" r="18" fill="#4D8DFF" opacity=".26" stroke="currentColor" stroke-width="2.35"/>
    <path d="M 128 128 Q 164.1 123.8 191.8 130.1" fill="none" stroke="currentColor" stroke-width="2.35"/><circle cx="191.8" cy="130.1" r="7" fill="#4D8DFF" stroke="currentColor" stroke-width="2.35"/><path d="M 128 128 Q 144.4 148.2 177.5 169.9" fill="none" stroke="currentColor" stroke-width="2.35"/><rect x="170.5" y="162.9" width="14" height="14" rx="3" fill="#4D8DFF" stroke="currentColor" stroke-width="2.35"/><path d="M 128 128 Q 112.4 159.9 91.6 182.9" fill="none" stroke="currentColor" stroke-width="2.35"/><circle cx="91.6" cy="182.9" r="7" fill="#4D8DFF" stroke="currentColor" stroke-width="2.35"/><path d="M 128 128 Q 94.4 132.4 60.3 150.8" fill="none" stroke="currentColor" stroke-width="2.35"/><rect x="53.3" y="143.8" width="14" height="14" rx="3" fill="#4D8DFF" stroke="currentColor" stroke-width="2.35"/><path d="M 128 128 Q 97.0 109.2 75.6 90.0" fill="none" stroke="currentColor" stroke-width="2.35"/><circle cx="75.6" cy="90.0" r="7" fill="#4D8DFF" stroke="currentColor" stroke-width="2.35"/><path d="M 128 128 Q 130.9 87.2 117.1 46.1" fill="none" stroke="currentColor" stroke-width="2.35"/><rect x="110.1" y="39.1" width="14" height="14" rx="3" fill="#4D8DFF" stroke="currentColor" stroke-width="2.35"/><path d="M 128 128 Q 154.9 114.0 176.1 93.1" fill="none" stroke="currentColor" stroke-width="2.35"/><circle cx="176.1" cy="93.1" r="7" fill="#4D8DFF" stroke="currentColor" stroke-width="2.35"/>
    <path d="M 40 218 h 72 M 144 218 h 72" stroke="currentColor" stroke-width="2.35" stroke-dasharray="8 6"/>
  
</svg>