<svg xmlns="http://www.w3.org/2000/svg" width="256" height="256" viewBox="0 0 256 256" style="color:#E9EEF9">

    <rect x="10" y="10" width="236" height="236" rx="26" fill="none" stroke="currentColor" stroke-width="2.35" opacity=".36"/>
    <circle cx="128" cy="128" r="42" fill="none" stroke="currentColor" stroke-width="2.35"/>
    <circle cx="128" cy="128" r="18" fill="#58D68A" opacity=".26" stroke="currentColor" stroke-width="2.35"/>
    <path d="M 128 128 Q 160.4 138.7 186.9 136.1" fill="none" stroke="currentColor" stroke-width="2.35"/><circle cx="186.9" cy="136.1" r="7" fill="#58D68A" stroke="currentColor" stroke-width="2.35"/><path d="M 128 128 Q 145.9 154.9 163.0 179.3" fill="none" stroke="currentColor" stroke-width="2.35"/><rect x="156.0" y="172.3" width="14" height="14" rx="3" fill="#58D68A" stroke="currentColor" stroke-width="2.35"/><path d="M 128 128 Q 120.9 159.0 104.6 189.6" fill="none" stroke="currentColor" stroke-width="2.35"/><circle cx="104.6" cy="189.6" r="7" fill="#58D68A" stroke="currentColor" stroke-width="2.35"/><path d="M 128 128 Q 94.2 125.6 58.4 137.3" fill="none" stroke="currentColor" stroke-width="2.35"/><rect x="51.4" y="130.3" width="14" height="14" rx="3" fill="#58D68A" stroke="currentColor" stroke-width="2.35"/><path d="M 128 128 Q 107.2 113.0 77.0 102.2" fill="none" stroke="currentColor" stroke-width="2.35"/><circle cx="77.0" cy="102.2" r="7" fill="#58D68A" stroke="currentColor" stroke-width="2.35"/><path d="M 128 128 Q 123.5 82.6 127.1 44.5" fill="none" stroke="currentColor" stroke-width="2.35"/><rect x="120.1" y="37.5" width="14" height="14" rx="3" fill="#58D68A" stroke="currentColor" stroke-width="2.35"/><path d="M 128 128 Q 155.1 107.2 173.2 86.0" fill="none" stroke="currentColor" stroke-width="2.35"/><circle cx="173.2" cy="86.0" r="7" fill="#58D68A" stroke="currentColor" stroke-width="2.35"/>
    <path d="M 40 218 h 72 M 144 218 h 72" stroke="currentColor" stroke-width="2.35" stroke-dasharray="8 6"/>
  
</svg>