<?xml version="1.0" encoding="UTF-8"?>
<svg xmlns="http://www.w3.org/2000/svg" width="256" height="256" viewBox="0 0 64 64"
  fill="none" role="img" aria-labelledby="title">
  <title id="title">Bistromathics</title>
  <g stroke-linecap="round" stroke-linejoin="round">
    <path d="M10 18V10H18 M46 10H54V18 M54 46V54H46 M18 54H10V46"
    stroke="#5A6378" stroke-width="1.25" opacity=".36"/>
    <g stroke="#E9EEF9" stroke-width="2.35"><path d="M16 12v17c0 4 2 6 6 6v17M25 12v17c0 4-1 6-3 6M42 12v40M37 12v13c0 4 2 7 5 7"/></g>
    <g stroke="#F5C84C" stroke-width="2.35"><path d="M29 18h6M29 24h6M29 42h6M32 39v6"/></g>
    <g fill="#F5C84C"></g>
  </g>
</svg>
