<?xml version="1.0" encoding="UTF-8"?>
<svg xmlns="http://www.w3.org/2000/svg" width="256" height="256" viewBox="0 0 64 64"
  fill="none" role="img" aria-labelledby="title">
  <title id="title">Stabilized Hydro Cycle</title>
  <g stroke-linecap="round" stroke-linejoin="round">
    <path d="M10 18V10H18 M46 10H54V18 M54 46V54H46 M18 54H10V46"
    stroke="#5A6378" stroke-width="1.25" opacity=".36"/>
    <g stroke="#E9EEF9" stroke-width="2.35"><path d="M15 31a17 17 0 0 1 28-12M49 33a17 17 0 0 1-28 12M43 13v8h-8M21 51v-8h8"/></g>
    <g stroke="#4D8DFF" stroke-width="2.35"><path d="M32 19s-7 8-7 13a7 7 0 0 0 14 0c0-5-7-13-7-13Z"/></g>
    <g fill="#4D8DFF"></g>
  </g>
</svg>
