<?xml version="1.0" encoding="UTF-8"?>
<svg xmlns="http://www.w3.org/2000/svg" width="256" height="256" viewBox="0 0 64 64"
  fill="none" role="img" aria-labelledby="title">
  <title id="title">Sub-Etha Sens-O-Matic</title>
  <g stroke-linecap="round" stroke-linejoin="round">
    <path d="M10 18V10H18 M46 10H54V18 M54 46V54H46 M18 54H10V46"
    stroke="#5A6378" stroke-width="1.25" opacity=".36"/>
    <g stroke="#E9EEF9" stroke-width="2.35"><path d="M32 23v28M24 51h16M32 23l-9-12M32 23l9-12"/><circle cx="32" cy="23" r="4"/></g>
    <g stroke="#5AD7E8" stroke-width="2.35"><path d="M20 22c-3 3-3 7 0 10M15 17c-6 6-6 14 0 20M44 22c3 3 3 7 0 10M49 17c6 6 6 14 0 20"/></g>
    <g fill="#5AD7E8"></g>
  </g>
</svg>
