<?xml version="1.0" encoding="UTF-8"?>
<svg xmlns="http://www.w3.org/2000/svg" width="256" height="256" viewBox="0 0 64 64"
  fill="none" role="img" aria-labelledby="title">
  <title id="title">Temporal Compressor</title>
  <g stroke-linecap="round" stroke-linejoin="round">
    <path d="M10 18V10H18 M46 10H54V18 M54 46V54H46 M18 54H10V46"
    stroke="#5A6378" stroke-width="1.25" opacity=".36"/>
    <g stroke="#E9EEF9" stroke-width="2.35"><path d="M19 12h26M19 52h26M23 12c0 10 3.5 14 9 20-5.5 6-9 10-9 20M41 12c0 10-3.5 14-9 20 5.5 6 9 10 9 20"/>
      <path d="M25 17h14M27 47h10"/></g>
    <g stroke="#FF8A3D" stroke-width="2.35"><path d="M28 22c0 4 1.3 6.4 4 10 2.7-3.6 4-6 4-10M28 46c.6-5 2-8.2 4-12 2 3.8 3.4 7 4 12"/>
      <path d="M13 25h8M43 25h8M13 39h8M43 39h8"/></g>
    <g fill="#FF8A3D"></g>
  </g>
</svg>
